<?xml version="1.0" encoding="UTF-8" standalone="no"?>
<!DOCTYPE svg PUBLIC "-//W3C//DTD SVG 1.0//EN"
 "http://www.w3.org/TR/2001/REC-SVG-20010904/DTD/svg10.dtd" [
 <!ATTLIST svg xmlns:xlink CDATA #FIXED "http://www.w3.org/1999/xlink">
]>
<!-- Generated by Graphviz version 2.20.2 (Tue Mar &#160;2 19:03:41 UTC 2010)
     For user: (krka) Kristofer Karlsson,,, -->
<!-- Title: Trade Pages: 1 -->
<svg width="1718pt" height="404pt"
 viewBox="0.00 0.00 1718.00 404.00" xmlns="http://www.w3.org/2000/svg" xmlns:xlink="http://www.w3.org/1999/xlink">
<g id="graph0" class="graph" transform="scale(1 1) rotate(0) translate(4 400)">
<title>Trade</title>
<polygon style="fill:white;stroke:white;" points="-4,4 -4,-400 1714,-400 1714,4 -4,4"/>
<!-- START -->
<g id="node1" class="node"><title>START</title>
<ellipse style="fill:none;stroke:black;" cx="197" cy="-378" rx="41.8891" ry="18"/>
<text text-anchor="middle" x="197" y="-373.9" style="font-family:Times New Roman;font-size:14.00;">START</text>
</g>
<!-- NEGOTIATING -->
<g id="node3" class="node"><title>NEGOTIATING</title>
<ellipse style="fill:none;stroke:black;" cx="758" cy="-288" rx="80.1057" ry="18"/>
<text text-anchor="middle" x="758" y="-283.9" style="font-family:Times New Roman;font-size:14.00;">NEGOTIATING</text>
</g>
<!-- START&#45;&gt;NEGOTIATING -->
<g id="edge2" class="edge"><title>START&#45;&gt;NEGOTIATING</title>
<path style="fill:none;stroke:black;" d="M236,-372C328,-356 562,-319 683,-300"/>
<polygon style="fill:black;stroke:black;" points="683.881,-303.393 693,-298 682.508,-296.529 683.881,-303.393"/>
<text text-anchor="middle" x="562" y="-328.9" style="font-family:Times New Roman;font-size:14.00;">INITIATED</text>
</g>
<!-- ABORTED -->
<g id="node24" class="node"><title>ABORTED</title>
<ellipse style="fill:none;stroke:black;" cx="715" cy="-18" rx="59.065" ry="18"/>
<text text-anchor="middle" x="715" y="-13.9" style="font-family:Times New Roman;font-size:14.00;">ABORTED</text>
</g>
<!-- START&#45;&gt;ABORTED -->
<g id="edge40" class="edge"><title>START&#45;&gt;ABORTED</title>
<path style="fill:none;stroke:black;" d="M160,-369C103,-354 0,-323 0,-288 0,-288 0,-288 0,-108 0,-42 467,-24 646,-19"/>
<polygon style="fill:black;stroke:black;" points="646,-22.5001 656,-19 646,-15.5001 646,-22.5001"/>
<text text-anchor="middle" x="64" y="-193.9" style="font-family:Times New Roman;font-size:14.00;">ABORTED(fromall)</text>
</g>
<!-- NEGOTIATING&#45;&gt;NEGOTIATING -->
<g id="edge4" class="edge"><title>NEGOTIATING&#45;&gt;NEGOTIATING</title>
<path style="fill:none;stroke:black;" d="M830,-296C845,-295 856,-292 856,-288 856,-285 850,-283 840,-281"/>
<polygon style="fill:black;stroke:black;" points="840.299,-277.512 830,-280 839.602,-284.478 840.299,-277.512"/>
<text text-anchor="middle" x="917" y="-283.9" style="font-family:Times New Roman;font-size:14.00;">OFFER_UPDATED</text>
</g>
<!-- COLLABORATOR_REJECTED -->
<g id="node6" class="node"><title>COLLABORATOR_REJECTED</title>
<ellipse style="fill:none;stroke:black;" cx="174" cy="-108" rx="146.12" ry="18"/>
<text text-anchor="middle" x="174" y="-103.9" style="font-family:Times New Roman;font-size:14.00;">COLLABORATOR_REJECTED</text>
</g>
<!-- NEGOTIATING&#45;&gt;COLLABORATOR_REJECTED -->
<g id="edge6" class="edge"><title>NEGOTIATING&#45;&gt;COLLABORATOR_REJECTED</title>
<path style="fill:none;stroke:black;" d="M679,-285C551,-280 308,-263 237,-216 209,-197 191,-161 182,-136"/>
<polygon style="fill:black;stroke:black;" points="185.226,-134.573 179,-126 178.521,-136.584 185.226,-134.573"/>
<text text-anchor="middle" x="331" y="-193.9" style="font-family:Times New Roman;font-size:14.00;">COLLABORATOR_REJECT</text>
</g>
<!-- COLLABORATOR_ACCEPT -->
<g id="node8" class="node"><title>COLLABORATOR_ACCEPT</title>
<ellipse style="fill:none;stroke:black;" cx="1034" cy="-198" rx="136.197" ry="18"/>
<text text-anchor="middle" x="1034" y="-193.9" style="font-family:Times New Roman;font-size:14.00;">COLLABORATOR_ACCEPT</text>
</g>
<!-- NEGOTIATING&#45;&gt;COLLABORATOR_ACCEPT -->
<g id="edge8" class="edge"><title>NEGOTIATING&#45;&gt;COLLABORATOR_ACCEPT</title>
<path style="fill:none;stroke:black;" d="M782,-271C791,-265 800,-258 809,-252 819,-244 820,-239 832,-234 849,-226 888,-218 927,-213"/>
<polygon style="fill:black;stroke:black;" points="927.881,-216.393 937,-211 926.508,-209.529 927.881,-216.393"/>
<text text-anchor="middle" x="922" y="-238.9" style="font-family:Times New Roman;font-size:14.00;">COLLABORATOR_ACCEPT</text>
</g>
<!-- INITIATOR_ACCEPT -->
<g id="node10" class="node"><title>INITIATOR_ACCEPT</title>
<ellipse style="fill:none;stroke:black;" cx="526" cy="-198" rx="105.122" ry="18"/>
<text text-anchor="middle" x="526" y="-193.9" style="font-family:Times New Roman;font-size:14.00;">INITIATOR_ACCEPT</text>
</g>
<!-- NEGOTIATING&#45;&gt;INITIATOR_ACCEPT -->
<g id="edge10" class="edge"><title>NEGOTIATING&#45;&gt;INITIATOR_ACCEPT</title>
<path style="fill:none;stroke:black;" d="M684,-281C620,-274 537,-264 527,-252 521,-245 520,-235 520,-226"/>
<polygon style="fill:black;stroke:black;" points="523.488,-226.299 521,-216 516.522,-225.602 523.488,-226.299"/>
<text text-anchor="middle" x="597" y="-238.9" style="font-family:Times New Roman;font-size:14.00;">INITIATOR_ACCEPT</text>
</g>
<!-- INITIATOR_REJECTED -->
<g id="node12" class="node"><title>INITIATOR_REJECTED</title>
<ellipse style="fill:none;stroke:black;" cx="1313" cy="-108" rx="116.045" ry="18"/>
<text text-anchor="middle" x="1313" y="-103.9" style="font-family:Times New Roman;font-size:14.00;">INITIATOR_REJECTED</text>
</g>
<!-- NEGOTIATING&#45;&gt;INITIATOR_REJECTED -->
<g id="edge12" class="edge"><title>NEGOTIATING&#45;&gt;INITIATOR_REJECTED</title>
<path style="fill:none;stroke:black;" d="M838,-285C935,-282 1094,-272 1150,-252 1215,-228 1229,-212 1278,-162 1286,-154 1292,-144 1298,-135"/>
<polygon style="fill:black;stroke:black;" points="1301.2,-136.441 1303,-126 1295.08,-133.042 1301.2,-136.441"/>
<text text-anchor="middle" x="1322" y="-193.9" style="font-family:Times New Roman;font-size:14.00;">INITIATOR_REJECT</text>
</g>
<!-- NEGOTIATING&#45;&gt;ABORTED -->
<g id="edge44" class="edge"><title>NEGOTIATING&#45;&gt;ABORTED</title>
<path style="fill:none;stroke:black;" d="M835,-283C980,-273 1289,-248 1392,-216 1487,-185 1645,-165 1579,-90 1552,-60 984,-30 784,-21"/>
<polygon style="fill:black;stroke:black;" points="784,-17.5001 774,-21 784,-24.5001 784,-17.5001"/>
<text text-anchor="middle" x="1647" y="-148.9" style="font-family:Times New Roman;font-size:14.00;">ABORTED(fromall)</text>
</g>
<!-- COLLABORATOR_REJECTED&#45;&gt;COLLABORATOR_REJECTED -->
<g id="edge32" class="edge"><title>COLLABORATOR_REJECTED&#45;&gt;COLLABORATOR_REJECTED</title>
<path style="fill:none;stroke:black;" d="M307,-115C326,-114 338,-112 338,-108 338,-105 330,-103 317,-102"/>
<polygon style="fill:black;stroke:black;" points="317.299,-98.5125 307,-101 316.602,-105.478 317.299,-98.5125"/>
<text text-anchor="middle" x="400" y="-103.9" style="font-family:Times New Roman;font-size:14.00;">OFFER_UPDATED</text>
</g>
<!-- COLLABORATOR_REJECTED&#45;&gt;ABORTED -->
<g id="edge46" class="edge"><title>COLLABORATOR_REJECTED&#45;&gt;ABORTED</title>
<path style="fill:none;stroke:black;" d="M222,-91C259,-79 310,-63 356,-54 455,-34 573,-25 646,-21"/>
<polygon style="fill:black;stroke:black;" points="646.398,-24.4778 656,-20 645.701,-17.5125 646.398,-24.4778"/>
<text text-anchor="middle" x="420" y="-58.9" style="font-family:Times New Roman;font-size:14.00;">ABORTED(fromall)</text>
</g>
<!-- COLLABORATOR_ACCEPT&#45;&gt;NEGOTIATING -->
<g id="edge20" class="edge"><title>COLLABORATOR_ACCEPT&#45;&gt;NEGOTIATING</title>
<path style="fill:none;stroke:black;" d="M1031,-216C1028,-228 1023,-243 1012,-252 986,-272 910,-281 847,-284"/>
<polygon style="fill:black;stroke:black;" points="846.602,-280.522 837,-285 847.299,-287.488 846.602,-280.522"/>
<text text-anchor="middle" x="1084" y="-238.9" style="font-family:Times New Roman;font-size:14.00;">OFFER_UPDATED</text>
</g>
<!-- COLLABORATOR_ACCEPT&#45;&gt;INITIATOR_REJECTED -->
<g id="edge24" class="edge"><title>COLLABORATOR_ACCEPT&#45;&gt;INITIATOR_REJECTED</title>
<path style="fill:none;stroke:black;" d="M1066,-180C1088,-169 1118,-154 1147,-144 1171,-135 1198,-129 1223,-123"/>
<polygon style="fill:black;stroke:black;" points="1223.88,-126.393 1233,-121 1222.51,-119.529 1223.88,-126.393"/>
<text text-anchor="middle" x="1212" y="-148.9" style="font-family:Times New Roman;font-size:14.00;">INITIATOR_REJECT</text>
</g>
<!-- COMPLETED -->
<g id="node15" class="node"><title>COMPLETED</title>
<ellipse style="fill:none;stroke:black;" cx="715" cy="-108" rx="72.9626" ry="18"/>
<text text-anchor="middle" x="715" y="-103.9" style="font-family:Times New Roman;font-size:14.00;">COMPLETED</text>
</g>
<!-- COLLABORATOR_ACCEPT&#45;&gt;COMPLETED -->
<g id="edge22" class="edge"><title>COLLABORATOR_ACCEPT&#45;&gt;COMPLETED</title>
<path style="fill:none;stroke:black;" d="M974,-182C952,-176 925,-168 902,-162 858,-149 809,-135 772,-125"/>
<polygon style="fill:black;stroke:black;" points="772.584,-121.521 762,-122 770.573,-128.226 772.584,-121.521"/>
<text text-anchor="middle" x="976" y="-148.9" style="font-family:Times New Roman;font-size:14.00;">INITIATOR_ACCEPT</text>
</g>
<!-- COLLABORATOR_ACCEPT&#45;&gt;ABORTED -->
<g id="edge42" class="edge"><title>COLLABORATOR_ACCEPT&#45;&gt;ABORTED</title>
<path style="fill:none;stroke:black;" d="M1039,-180C1044,-155 1048,-113 1025,-90 990,-56 861,-35 781,-25"/>
<polygon style="fill:black;stroke:black;" points="781.299,-21.5125 771,-24 780.602,-28.4778 781.299,-21.5125"/>
<text text-anchor="middle" x="1104" y="-103.9" style="font-family:Times New Roman;font-size:14.00;">ABORTED(fromall)</text>
</g>
<!-- INITIATOR_ACCEPT&#45;&gt;NEGOTIATING -->
<g id="edge14" class="edge"><title>INITIATOR_ACCEPT&#45;&gt;NEGOTIATING</title>
<path style="fill:none;stroke:black;" d="M598,-211C620,-217 643,-224 663,-234 674,-239 675,-245 686,-252 694,-257 704,-263 713,-267"/>
<polygon style="fill:black;stroke:black;" points="711.559,-270.203 722,-272 714.958,-264.084 711.559,-270.203"/>
<text text-anchor="middle" x="750" y="-238.9" style="font-family:Times New Roman;font-size:14.00;">OFFER_UPDATED</text>
</g>
<!-- INITIATOR_ACCEPT&#45;&gt;COLLABORATOR_REJECTED -->
<g id="edge18" class="edge"><title>INITIATOR_ACCEPT&#45;&gt;COLLABORATOR_REJECTED</title>
<path style="fill:none;stroke:black;" d="M439,-188C399,-182 351,-174 308,-162 279,-153 246,-140 221,-129"/>
<polygon style="fill:black;stroke:black;" points="222.56,-125.863 212,-125 219.717,-132.26 222.56,-125.863"/>
<text text-anchor="middle" x="402" y="-148.9" style="font-family:Times New Roman;font-size:14.00;">COLLABORATOR_REJECT</text>
</g>
<!-- INITIATOR_ACCEPT&#45;&gt;COMPLETED -->
<g id="edge16" class="edge"><title>INITIATOR_ACCEPT&#45;&gt;COMPLETED</title>
<path style="fill:none;stroke:black;" d="M562,-181C593,-166 639,-144 672,-129"/>
<polygon style="fill:black;stroke:black;" points="673.958,-131.916 681,-124 670.559,-125.797 673.958,-131.916"/>
<text text-anchor="middle" x="726" y="-148.9" style="font-family:Times New Roman;font-size:14.00;">COLLABORATOR_ACCEPT</text>
</g>
<!-- INITIATOR_ACCEPT&#45;&gt;ABORTED -->
<g id="edge38" class="edge"><title>INITIATOR_ACCEPT&#45;&gt;ABORTED</title>
<path style="fill:none;stroke:black;" d="M515,-180C503,-157 486,-117 506,-90 524,-65 601,-44 656,-30"/>
<polygon style="fill:black;stroke:black;" points="656.881,-33.3933 666,-28 655.508,-26.5292 656.881,-33.3933"/>
<text text-anchor="middle" x="569" y="-103.9" style="font-family:Times New Roman;font-size:14.00;">ABORTED(fromall)</text>
</g>
<!-- INITIATOR_REJECTED&#45;&gt;INITIATOR_REJECTED -->
<g id="edge30" class="edge"><title>INITIATOR_REJECTED&#45;&gt;INITIATOR_REJECTED</title>
<path style="fill:none;stroke:black;" d="M1418,-116C1435,-115 1447,-112 1447,-108 1447,-105 1440,-102 1428,-101"/>
<polygon style="fill:black;stroke:black;" points="1428.3,-97.5125 1418,-100 1427.6,-104.478 1428.3,-97.5125"/>
<text text-anchor="middle" x="1508" y="-103.9" style="font-family:Times New Roman;font-size:14.00;">OFFER_UPDATED</text>
</g>
<!-- INITIATOR_REJECTED&#45;&gt;ABORTED -->
<g id="edge36" class="edge"><title>INITIATOR_REJECTED&#45;&gt;ABORTED</title>
<path style="fill:none;stroke:black;" d="M1252,-93C1202,-80 1130,-64 1066,-54 968,-38 853,-28 783,-23"/>
<polygon style="fill:black;stroke:black;" points="783.299,-19.5125 773,-22 782.602,-26.4778 783.299,-19.5125"/>
<text text-anchor="middle" x="1230" y="-58.9" style="font-family:Times New Roman;font-size:14.00;">ABORTED(fromall)</text>
</g>
<!-- COMPLETED&#45;&gt;COMPLETED -->
<g id="edge26" class="edge"><title>COMPLETED&#45;&gt;COMPLETED</title>
<path style="fill:none;stroke:black;" d="M787,-111C798,-111 806,-110 806,-108 806,-107 803,-106 797,-105"/>
<polygon style="fill:black;stroke:black;" points="797,-101.5 787,-105 797,-108.5 797,-101.5"/>
<text text-anchor="middle" x="840" y="-103.9" style="font-family:Times New Roman;font-size:14.00;">ABORTED</text>
</g>
<!-- COMPLETED&#45;&gt;COMPLETED -->
<g id="edge28" class="edge"><title>COMPLETED&#45;&gt;COMPLETED</title>
<path style="fill:none;stroke:black;" d="M763,-122C812,-128 875,-124 875,-108 875,-93 820,-89 773,-93"/>
<polygon style="fill:black;stroke:black;" points="772.602,-89.5222 763,-94 773.299,-96.4875 772.602,-89.5222"/>
<text text-anchor="middle" x="936" y="-103.9" style="font-family:Times New Roman;font-size:14.00;">OFFER_UPDATED</text>
</g>
<!-- COMPLETED&#45;&gt;ABORTED -->
<g id="edge50" class="edge"><title>COMPLETED&#45;&gt;ABORTED</title>
<path style="fill:none;stroke:black;" d="M715,-90C715,-77 715,-61 715,-46"/>
<polygon style="fill:black;stroke:black;" points="718.5,-46 715,-36 711.5,-46 718.5,-46"/>
<text text-anchor="middle" x="778" y="-58.9" style="font-family:Times New Roman;font-size:14.00;">ABORTED(fromall)</text>
</g>
<!-- ABORTED&#45;&gt;ABORTED -->
<g id="edge34" class="edge"><title>ABORTED&#45;&gt;ABORTED</title>
<path style="fill:none;stroke:black;" d="M773,-22C784,-21 792,-20 792,-18 792,-17 789,-16 783,-15"/>
<polygon style="fill:black;stroke:black;" points="783.299,-11.5125 773,-14 782.602,-18.4778 783.299,-11.5125"/>
<text text-anchor="middle" x="853" y="-13.9" style="font-family:Times New Roman;font-size:14.00;">OFFER_UPDATED</text>
</g>
<!-- ABORTED&#45;&gt;ABORTED -->
<g id="edge48" class="edge"><title>ABORTED&#45;&gt;ABORTED</title>
<path style="fill:none;stroke:black;" d="M758,-30C819,-39 915,-35 915,-18 915,-2 829,3 768,-5"/>
<polygon style="fill:black;stroke:black;" points="767.602,-1.52224 758,-6 768.299,-8.4875 767.602,-1.52224"/>
<text text-anchor="middle" x="978" y="-13.9" style="font-family:Times New Roman;font-size:14.00;">ABORTED(fromall)</text>
</g>
</g>
</svg>
